<svg width="10" height="9" viewBox="0 0 10 9" fill="none" xmlns="http://www.w3.org/2000/svg">
<path d="M8.41019 1.72856C8.7227 2.07492 8.89968 2.52048 8.91198 2.98367L8.58579 3.09802L8.67579 3.14555C8.65485 3.15314 8.63302 3.16095 8.61033 3.16898C8.44066 3.22901 8.24316 3.29439 8.03087 3.36468C7.83934 3.42808 7.63577 3.49548 7.42971 3.56653C7.01081 3.71097 6.59037 3.86775 6.33171 4.01384C6.26586 4.05103 6.20351 4.09134 6.15205 4.13488C6.10476 4.17489 6.04495 4.23545 6.01579 4.31828C6.01186 4.32946 6.00845 4.34115 6.00573 4.35326C5.97119 4.36923 5.9379 4.38844 5.90606 4.41038C5.76642 4.50662 5.65225 4.65573 5.55769 4.8182C5.36739 5.14514 5.21506 5.59975 5.09804 6.04623C4.97996 6.49676 4.89354 6.95609 4.8404 7.30292C4.81384 7.47628 4.79526 7.62365 4.78523 7.72937C4.78479 7.73404 4.78436 7.73865 4.78394 7.74322C4.77174 7.75728 4.7605 7.77402 4.75103 7.79392C4.7019 7.89723 4.75084 7.98434 4.76119 8.00173C4.78998 8.0501 4.83054 8.07629 4.84335 8.08444C4.86949 8.10106 4.90037 8.11517 4.93527 8.12593L4.99842 8.16683L5.03146 8.14548C5.0744 8.15022 5.12105 8.15055 5.17057 8.14553C5.41033 8.12123 5.72988 7.97342 6.12378 7.55835C6.13774 7.57681 6.15802 7.59875 6.18563 7.61677C6.21502 7.63596 6.26302 7.65716 6.32294 7.65346C6.00615 7.93274 5.68029 8.20166 5.34588 8.45981C5.24192 8.52526 5.12153 8.56003 4.99857 8.56003C4.87563 8.56003 4.75526 8.52527 4.65131 8.45985C4.1281 8.05544 3.62597 7.62446 3.14691 7.1686L3.14698 7.16853L3.14193 7.16401L2.69557 6.76502L2.69529 6.76478C2.58099 6.66296 2.46602 6.56304 2.35316 6.46495C2.34294 6.45607 2.33275 6.44721 2.32257 6.43837C1.23661 5.49426 0.217653 4.59326 0.217653 3.13839H0.21778L0.217527 3.13097C0.192103 2.3863 0.462583 1.66185 0.96982 1.11605C1.47682 0.570503 2.17912 0.247805 2.92327 0.218428C3.28427 0.207954 3.64302 0.278646 3.97307 0.425296C4.30344 0.572087 4.5966 0.791232 4.8309 1.06654L4.99657 1.2612L5.16203 1.06637C5.39649 0.790308 5.6902 0.570696 6.0213 0.423886C6.35217 0.277179 6.71185 0.20695 7.07359 0.218417C7.81785 0.247724 8.52026 0.570435 9.02732 1.11605C9.48637 1.61001 9.75152 2.25028 9.7789 2.91946C9.76314 2.87228 9.742 2.83088 9.72281 2.79828C9.66273 2.69623 9.57235 2.5951 9.50265 2.51713C9.49999 2.51415 9.49736 2.51121 9.49477 2.5083C9.44561 2.45327 9.40853 2.41085 9.38241 2.37748C9.42162 2.33418 9.44963 2.27908 9.45786 2.21274C9.46952 2.11871 9.43604 2.03765 9.40936 1.98707C9.35875 1.89109 9.2717 1.7951 9.20491 1.72427C9.24304 1.68811 9.27815 1.63225 9.27546 1.5511C9.2721 1.44977 9.20549 1.38929 9.19063 1.3758L9.19051 1.37569C9.14467 1.33406 9.08332 1.30436 9.03907 1.28528C8.98787 1.26322 8.92903 1.24277 8.86991 1.22624C8.81106 1.20978 8.74707 1.19584 8.68589 1.18876C8.63097 1.1824 8.55349 1.17831 8.48091 1.19998C8.44277 1.21137 8.38799 1.23518 8.34373 1.28733C8.29455 1.34528 8.27734 1.41578 8.28297 1.48098C8.29205 1.58636 8.35948 1.67235 8.41019 1.72856ZM6.35473 4.53741L6.41884 4.35489C6.42352 4.36462 6.42766 4.37614 6.43029 4.38944C6.43628 4.41976 6.43172 4.44567 6.42577 4.46258C6.42095 4.47628 6.41576 4.48297 6.41573 4.483C6.41571 4.48303 6.41998 4.47751 6.43277 4.46668C6.4554 4.44754 6.492 4.42247 6.54546 4.39228C6.76405 4.26881 7.1469 4.12379 7.57139 3.97742C7.76294 3.91137 7.9657 3.84417 8.15951 3.77993C8.31352 3.72889 8.46187 3.67972 8.59444 3.63449C8.4496 3.88962 8.32074 4.11596 8.19673 4.32335C7.8309 4.71072 7.41851 5.14189 7.01115 5.56435C6.46757 6.12807 5.93356 6.67561 5.53189 7.08198C5.43817 7.17681 5.35177 7.26382 5.27423 7.34147C5.32597 7.00918 5.40814 6.57739 5.51847 6.15643C5.63291 5.7198 5.77343 5.31153 5.93332 5.03683C6.01384 4.89849 6.0891 4.81208 6.15271 4.76824C6.20728 4.73063 6.24389 4.7288 6.28272 4.74244L6.35473 4.53741ZM6.55252 7.37591C6.56419 7.27684 6.57063 7.10631 6.57184 6.83465C6.675 6.74381 6.7407 6.68847 6.78152 6.65579C6.78339 6.65546 6.78512 6.6551 6.7867 6.65471C6.80274 6.64874 6.82715 6.6367 6.83579 6.63147C6.84134 6.62781 6.85049 6.62123 6.85415 6.61838C6.86573 6.60918 6.87399 6.60057 6.8754 6.59909L6.87555 6.59894C6.88321 6.591 6.88894 6.58377 6.88968 6.58284L6.88999 6.58246C6.89088 6.58137 6.89311 6.57863 6.89617 6.57451C6.90841 6.55984 6.94249 6.52011 7.02218 6.43166C7.118 6.34627 7.20787 6.26323 7.29263 6.18183C7.34233 6.14628 7.3898 6.1175 7.4398 6.08751C7.4445 6.0847 7.44921 6.08187 7.45396 6.07903C7.59303 5.99575 7.75246 5.90027 7.98448 5.6728L7.99387 5.6636L8.00208 5.65333C8.15815 5.45813 8.64957 4.79991 9.02159 4.21664C9.10864 4.08017 9.19173 3.94388 9.26314 3.81619C9.4993 3.55729 9.67233 3.35911 9.73968 3.26376L9.73991 3.26392L9.74583 3.25456C9.75966 3.23269 9.7706 3.21077 9.77906 3.18895C9.75489 4.61891 8.7075 5.54234 7.69015 6.42501C7.5615 6.53621 7.4317 6.64941 7.30346 6.7632L7.30289 6.76371L6.90216 7.12184L6.90208 7.12175L6.89686 7.12674C6.77849 7.23982 6.65872 7.35139 6.53757 7.46142C6.53779 7.46056 6.53799 7.45977 6.53817 7.45903C6.54475 7.43281 6.54918 7.40422 6.55252 7.37591ZM9.3408 2.31386C9.34085 2.31388 9.34118 2.31462 9.34163 2.31603C9.34097 2.31455 9.34075 2.31384 9.3408 2.31386Z" fill="#FF0014" stroke="#FF0014" stroke-width="0.434629"/>
</svg>
