<svg width="21" height="21" viewBox="0 0 21 21" fill="none" xmlns="http://www.w3.org/2000/svg">
<path d="M14.4943 3.9736C15.6082 4.03518 16.6526 4.53451 17.3999 5.36279C18.1472 6.19107 18.5369 7.28115 18.484 8.39548C18.484 10.9988 16.2366 12.5979 14.0799 14.5156C11.9512 16.4164 10.8046 17.4553 10.4334 17.6952C10.0292 17.4333 8.6174 16.1503 6.78696 14.5156C4.62093 12.5902 2.38288 10.9759 2.38288 8.39548C2.32997 7.28115 2.71963 6.19107 3.46696 5.36279C4.21428 4.53451 5.25868 4.03518 6.37257 3.9736C6.98962 3.9549 7.60096 4.09663 8.14684 4.38494C8.69271 4.67325 9.15443 5.09827 9.48687 5.61846C10.1987 6.61418 10.3173 7.11247 10.436 7.11247C10.5546 7.11247 10.6716 6.61419 11.3766 5.61592C11.7072 5.09333 12.1691 4.66662 12.7162 4.37843C13.2633 4.09023 13.8764 3.95064 14.4943 3.9736ZM14.4943 2.27874C13.7248 2.25411 12.9596 2.40339 12.2558 2.71547C11.552 3.02755 10.9276 3.49439 10.4292 4.08122C9.93123 3.4961 9.30815 3.03033 8.606 2.71835C7.90385 2.40636 7.14058 2.25613 6.37257 2.27874C4.80895 2.33989 3.33317 3.01769 2.26791 4.16393C1.20266 5.31017 0.634628 6.83158 0.688021 8.39548C0.688021 11.4547 2.84896 13.3334 4.93787 15.1495C5.17769 15.3579 5.42006 15.5681 5.66073 15.7825L6.53104 16.5604C7.48019 17.4636 8.47526 18.3173 9.51229 19.118C9.78667 19.2956 10.1066 19.3902 10.4334 19.3902C10.7603 19.3902 11.0802 19.2956 11.3546 19.118C12.4246 18.2928 13.4503 17.4117 14.4274 16.4782L15.2087 15.78C15.457 15.5596 15.7087 15.3401 15.9587 15.1241C17.9366 13.408 20.1789 11.4632 20.1789 8.39548C20.2323 6.83158 19.6642 5.31017 18.599 4.16393C17.5337 3.01769 16.0579 2.33989 14.4943 2.27874Z" fill="#262626"/>
</svg>
